<svg xmlns="http://www.w3.org/2000/svg" viewBox="0 0 500 500"><g id="freepik--background-simple--inject-83"><path d="M76.1,85.5c32.83-37.27,84.12-57.1,132.64-62a382.43,382.43,0,0,1,42.81-1.81c140.89,1.5,182.12,62.2,173.12,91.43s-34.47,47.22,2.25,87.69,77.94,101.17,57,161.88S376,470.6,250.05,463.11s-207.6-8.25-233.83-64.45,31.12-94.78,39.17-143c5-29.87-7.83-60-8.77-89.76C45.61,133.77,57.23,106.93,76.1,85.5Z" style="fill:#8E8D8D"></path><path d="M76.1,85.5c32.83-37.27,84.12-57.1,132.64-62a382.43,382.43,0,0,1,42.81-1.81c140.89,1.5,182.12,62.2,173.12,91.43s-34.47,47.22,2.25,87.69,77.94,101.17,57,161.88S376,470.6,250.05,463.11s-207.6-8.25-233.83-64.45,31.12-94.78,39.17-143c5-29.87-7.83-60-8.77-89.76C45.61,133.77,57.23,106.93,76.1,85.5Z" style="fill:#fff;opacity:0.7000000000000001"></path></g><g id="freepik--Floor--inject-83"><line x1="5.74" y1="404.95" x2="488.25" y2="404.95" style="fill:none;stroke:#263238;stroke-linecap:round;stroke-linejoin:round"></line></g><g id="freepik--videotape-4--inject-83"><path d="M139.26,384.7v40.89l292.54,18.6,42.4-29,.6-38.47-40,23.22a22.66,22.66,0,0,1-5.58,1.12C427,401,139.26,384.7,139.26,384.7Z" style="fill:#545454;stroke:#263238;stroke-linecap:round;stroke-linejoin:round"></path><path d="M181.13,396l.27,24.75a4.38,4.38,0,0,0,4.1,4.32L411.93,439.8a4.38,4.38,0,0,0,4.66-4.33l.28-26.9a4.37,4.37,0,0,0-4.13-4.42l-227-12.53A4.38,4.38,0,0,0,181.13,396Z" style="fill:#fff;stroke:#263238;stroke-linecap:round;stroke-linejoin:round"></path><polygon points="175.13 425.88 175.13 409.96 160.99 408.85 160.99 425.21 175.13 425.88" style="fill:none;stroke:#263238;stroke-linecap:round;stroke-linejoin:round"></polygon><polygon points="162.28 425.09 162.28 411.56 175.02 412.49 175.13 409.96 160.99 408.85 160.99 425.21 162.28 425.09" style="fill:#263238;stroke:#263238;stroke-linecap:round;stroke-linejoin:round"></polygon><path d="M197.07,392.25l-11.32-.63a4.38,4.38,0,0,0-4.62,4.42l.27,24.75a4.38,4.38,0,0,0,4.1,4.32l11.57.75Z" style="fill:#8E8D8D;stroke:#263238;stroke-linecap:round;stroke-linejoin:round"></path><line x1="432.91" y1="403.27" x2="432.91" y2="440.09" style="fill:none;stroke:#263238;stroke-linecap:round;stroke-linejoin:round"></line><line x1="433.66" y1="422.24" x2="466.39" y2="402.15" style="fill:none;stroke:#263238;stroke-linecap:round;stroke-linejoin:round"></line><path d="M466.76,383.92l-2.23,3.72s3.72,16,3.72,17.49-2.23,5.58-2.23,5.58V420" style="fill:none;stroke:#263238;stroke-linecap:round;stroke-linejoin:round"></path><line x1="140.16" y1="405.87" x2="178.47" y2="408.1" style="fill:none;stroke:#263238;stroke-linecap:round;stroke-linejoin:round"></line><line x1="418.41" y1="422.98" x2="428.45" y2="423.73" style="fill:none;stroke:#263238;stroke-linecap:round;stroke-linejoin:round"></line><polygon points="474.8 376.27 199.47 366.5 139.25 384.7 432.27 401.42 474.8 376.27" style="fill:#919191;stroke:#263238;stroke-linecap:round;stroke-linejoin:round"></polygon><polygon points="259.72 374.11 236.09 384.9 360.35 389.73 382.48 380.56 259.72 374.11" style="fill:#d1d1d1;stroke:#263238;stroke-linecap:round;stroke-linejoin:round"></polygon><path d="M387.64,381l-19.54,9.17,58.25,3.37s36.51-6.27,19.18-10.13Z" style="fill:#d1d1d1;stroke:#263238;stroke-linecap:round;stroke-linejoin:round"></path><path d="M254.85,373.46l-53.42-3s-21.38,2.91-28,5.82.74,5.81,9.22,5.81,48.67,2.33,48.67,2.33Z" style="fill:#d1d1d1;stroke:#263238;stroke-linecap:round;stroke-linejoin:round"></path><path d="M253.06,419.61v-3.35c0-.87-.06-2-.19-3.44-.14-1.59-.2-2.69-.2-3.28l.05-1.62c0-.47.05-1,.05-1.59-.07.22-.36,1.4-.86,3.55s-1,4-1.57,5.75-1,2.53-1.28,2.51a1.2,1.2,0,0,1-.8-.36,1.18,1.18,0,0,1-.3-.84,27.76,27.76,0,0,0-.93-5q-.93-3.81-1.69-6.24l-.16,2.95c-.14,2.48-.23,4.55-.29,6.2s0,2.71,0,3.3a2.38,2.38,0,0,0,0,.39V419a1,1,0,0,1-.18.65.83.83,0,0,1-.69.18.8.8,0,0,1-.49-.23.6.6,0,0,1-.24-.45q0-2.67.39-8t.4-8a.88.88,0,0,1-.16-.51.48.48,0,0,1,.3-.46,1.37,1.37,0,0,1,.72-.12c.23,0,.65.86,1.26,2.54s1.22,3.59,1.83,5.7,1,3.65,1.18,4.58c.14-.46.25-.89.34-1.28l.15-.62q.84-3.6,1.68-6.5a17.25,17.25,0,0,1,1-2.76c.31-.71.6-1.06.86-1a1.19,1.19,0,0,1,.67.24.63.63,0,0,1,.3.53c0,1.26.05,3.14.15,5.66.13,2.35.19,4.17.19,5.46l0,1.38-.05,1.38a7,7,0,0,0,.08.95l.08.92c0,.16,0,.28,0,.37s0,.14,0,.16a1.87,1.87,0,0,1,.13.51,1.19,1.19,0,0,1-.26.76.71.71,0,0,1-.63.3Q253.06,421.23,253.06,419.61Z" style="fill:#263238"></path><path d="M259.68,420.44a2.37,2.37,0,0,1-.81-.85,7.08,7.08,0,0,1-.81-2.54,18.55,18.55,0,0,1-.19-2.89q-.08-2.84-.08-6.91l0-2a3.19,3.19,0,0,1,0-.52c0-.67-.05-1.07-.05-1.21.16-.36.34-.53.55-.51s.4.18.56.51a2.18,2.18,0,0,1,.25,1v7.12q0,1.05.18,2.79c.12,1.43.19,2.36.19,2.78,0,1.29.55,2,1.64,2q1.89.14,1.89-13.95v-1.7a.75.75,0,0,1,.12-.66.75.75,0,0,1,.56-.1.75.75,0,0,1,.53.23.86.86,0,0,1,.25.48,3.77,3.77,0,0,1,0,.6c0,.28,0,.72-.08,1.33a9.43,9.43,0,0,0-.1,1.3,8.49,8.49,0,0,1-.06,1.07l-.05,1.09v.21a.88.88,0,0,1,0,.24q0,11.61-3.38,11.39A2.36,2.36,0,0,1,259.68,420.44Z" style="fill:#263238"></path><path d="M267.12,420.86a1.09,1.09,0,0,1-.38-.7l.29-.43a2.05,2.05,0,0,1,.5.14,3.45,3.45,0,0,0,.6.12,1.06,1.06,0,0,0,.85-.36,2.44,2.44,0,0,0,.56-1.06,8.35,8.35,0,0,0,.34-2.23,7.74,7.74,0,0,0-1.1-3.71l-.29-.52c-.33-.6-.61-1.13-.83-1.6a9.93,9.93,0,0,1-.58-1.5,7.17,7.17,0,0,1-.31-2.07,6,6,0,0,1,.52-2.37,2.23,2.23,0,0,1,.75-.93,1.59,1.59,0,0,1,1.08-.3,1.51,1.51,0,0,1,.88.36,1,1,0,0,1,.4.75.4.4,0,0,1-.18.35.7.7,0,0,1-.44.1,1,1,0,0,1-.55-.2c-.39,0-.69.32-.92,1a5.2,5.2,0,0,0-.29,1.5,5.32,5.32,0,0,0,.24,1.55,7.77,7.77,0,0,0,.6,1.44l.58,1.08.91,1.79a8.07,8.07,0,0,1,.59,1.74,8.9,8.9,0,0,1,.22,2,6.3,6.3,0,0,1-.73,3,2.67,2.67,0,0,1-1,1.1,2.52,2.52,0,0,1-1.48.35v.08A2,2,0,0,1,267.12,420.86Z" style="fill:#263238"></path><path d="M272.94,420.42q0-.63.81-.57l.29,0,.26,0c.14,0,.24,0,.29-.11a1,1,0,0,0,.08-.46c0-.3,0-.76-.05-1.39-.06-.43-.12-1.18-.19-2.27q-.23-4-.23-6.06c0-.48,0-.93,0-1.33l0-1.33a11.54,11.54,0,0,0-.08-1.45,2.29,2.29,0,0,1-.6.07.6.6,0,0,1-.63-.67.62.62,0,0,1,.39-.53,2.75,2.75,0,0,1,1-.27,9.37,9.37,0,0,1,1.86-.08.85.85,0,0,1,.76.78.73.73,0,0,1-.17.49.52.52,0,0,1-.44.18.92.92,0,0,1-.26-.05h-.21a.53.53,0,0,0-.38.09.65.65,0,0,0-.11.43q0,2.54.31,7.66,0,.94.21,2.79a22.13,22.13,0,0,1,.13,2.46v1a3.17,3.17,0,0,1,.52,0c.74.05,1.1.38,1.1,1V421l-.65.4a.87.87,0,0,0-.17,0l-.54,0c-.56,0-.91,0-1.07,0C273.7,421.26,272.94,421,272.94,420.42Z" style="fill:#263238"></path><path d="M282.11,422.06a4.83,4.83,0,0,1-1-.45q-1.75-1.25-1.75-6.27V413.2c0-.7,0-1.32,0-1.87s.06-1.15.11-1.79a9.49,9.49,0,0,1,.24-1.64,7.14,7.14,0,0,1,.52-1.42,2.84,2.84,0,0,1,.77-1.12,3.52,3.52,0,0,1,1.19-.63,4,4,0,0,1,1.62-.18.94.94,0,0,1,.6.23.63.63,0,0,1,.21.48.64.64,0,0,1-.17.46.55.55,0,0,1-.4.21l-1.23-.08a1,1,0,0,0-.92.59,4.49,4.49,0,0,0-.55,1.66,19.45,19.45,0,0,0-.34,3.12v.13l-.05,2.51c0,.74-.05,1.59-.05,2.53A12.25,12.25,0,0,0,281,418a5.15,5.15,0,0,0,.44,1.6,2.14,2.14,0,0,0,1.07,1.09,2.48,2.48,0,0,0,.87.22.9.9,0,0,0,.57-.17,1,1,0,0,1,.57.18.55.55,0,0,1,.22.45c0,.68-.48,1-1.44.92A5.3,5.3,0,0,1,282.11,422.06Z" style="fill:#263238"></path><path d="M293.93,422.59a36.35,36.35,0,0,0-.57-6.27q-.56-3.26-1.76-8c0-.18-.12-.46-.24-.83a9.41,9.41,0,0,1-.47-1.89.54.54,0,0,1,.2-.41.58.58,0,0,1,.43-.15c.26,0,.5.25.73.71a8.19,8.19,0,0,1,.63,1.73q.28,1.08.63,2.67c.21,1,.46,2.55.76,4.63l.15,1,.32,2.35c.07.65.13,1.12.18,1.4.37-1.89.84-4.64,1.41-8.22.47-3.08.81-5.17,1-6.29l.57,0a.69.69,0,0,1,.42.2.61.61,0,0,1,.18.42,9.72,9.72,0,0,1-.22,2c-.15.72-.37,1.57-.66,2.56s-.41,1.5-.49,1.93-.15,1.12-.22,2.05a51.05,51.05,0,0,1-.66,5.64,8.06,8.06,0,0,1-.75,2.33c-.32.55-.68.81-1.08.79Z" style="fill:#263238"></path><path d="M300.15,422.28q0-.63.81-.57l.29,0,.26,0c.14,0,.24,0,.29-.11a1,1,0,0,0,.08-.46c0-.3,0-.76-.05-1.39-.06-.43-.12-1.18-.19-2.27q-.22-4-.23-6.06c0-.48,0-.93,0-1.33l0-1.33a11.54,11.54,0,0,0-.08-1.45,2.85,2.85,0,0,1-.6.07.6.6,0,0,1-.63-.67.61.61,0,0,1,.4-.53,2.64,2.64,0,0,1,1-.27,9.37,9.37,0,0,1,1.86-.08.85.85,0,0,1,.76.78.73.73,0,0,1-.17.49.52.52,0,0,1-.44.18.92.92,0,0,1-.26,0h-.21a.53.53,0,0,0-.38.09.65.65,0,0,0-.11.43q0,2.54.31,7.66,0,.94.21,2.79a22.13,22.13,0,0,1,.13,2.46v1a3.17,3.17,0,0,1,.52,0c.74,0,1.1.38,1.1,1v.16l-.65.4H304l-.54,0c-.56,0-.91,0-1.07,0C300.91,423.12,300.15,422.81,300.15,422.28Z" style="fill:#263238"></path><path d="M307.19,420.3l.05-4.13c0-1.22,0-2.59,0-4.1,0-.56,0-1.43-.16-2.6s-.13-2.06-.13-2.34a.73.73,0,0,1,.29-.58.84.84,0,0,1,.63-.22,4.31,4.31,0,0,1,1.76.52,5.41,5.41,0,0,1,1.51,1.24,8.89,8.89,0,0,1,1.83,3.64,8,8,0,0,1,.23,1.92,6.22,6.22,0,0,1,0,.63l0,.7v1.44a25.94,25.94,0,0,1-.1,2.64,8.17,8.17,0,0,1-.6,2.28A5.5,5.5,0,0,1,311,423.2a6.56,6.56,0,0,1-1.21.71l-1.88-.13C307.42,423.75,307.19,422.59,307.19,420.3Zm2.8,2a2.17,2.17,0,0,0,.76-.69,4.74,4.74,0,0,0,.48-1,7.15,7.15,0,0,0,.33-1.22,15.46,15.46,0,0,0,.29-2.39c0-.2,0-.51,0-.91,0-5.27-1-8.08-3.06-8.45a18,18,0,0,0-.18,2.71c0,1.1.07,3,.21,5.77q.18,3.64.18,5.79v.63A1.63,1.63,0,0,0,310,422.31Z" style="fill:#263238"></path><path d="M316.68,424.33a.88.88,0,0,1-.31-.6v-1.2c0-.16,0-.34,0-.55,0-.37,0-.93-.08-1.68l0-1.68c0-.86,0-2.13.08-3.82.07-1.51.1-2.78.1-3.81,0-.24,0-.61-.08-1.1s-.08-.88-.08-1.11c0-1.24.37-1.83,1.1-1.78a7.27,7.27,0,0,1,2,.48c.76.27,1.14.57,1.14.88a.6.6,0,0,1-.22.47,1.46,1.46,0,0,1-.54.32,11.45,11.45,0,0,0-2-.66c0,.26,0,.64,0,1.13,0,.7,0,1.32,0,1.88-.06.83-.08,1.46-.08,1.88l.08.42h.41c.14,0,.32,0,.53,0,.83.05,1.25.33,1.25.81a.57.57,0,0,1-.23.47.9.9,0,0,1-.6.16,4.54,4.54,0,0,1-.74-.11l-.65,0c0,.46.05,1.12.05,2s0,1.66,0,2.35c-.06,1.07-.08,1.86-.08,2.38a7.41,7.41,0,0,0,0,1.47l.86,0c.3,0,.66,0,1.08.05.66,0,1,.28,1,.7a.56.56,0,0,1-.33.53,1.44,1.44,0,0,1-.8.15l-2.22-.16A.92.92,0,0,1,316.68,424.33Z" style="fill:#263238"></path><path d="M325.32,424.88a3.69,3.69,0,0,1-.94-1.23,11,11,0,0,1-.94-3.54,26.13,26.13,0,0,1-.24-3.45,3.74,3.74,0,0,1,0-.52v-.47c0-.09,0-.13,0-.13v-.47l0-1.83c0-.56.09-1.44.21-2.66a8.83,8.83,0,0,1,.6-2.39,1.84,1.84,0,0,1,.47-.77.89.89,0,0,1,.66-.23,4.81,4.81,0,0,1,1.88.51,4.3,4.3,0,0,1,1.41,1.16,6.27,6.27,0,0,1,.89,1.67,9.88,9.88,0,0,1,.53,2.06,17.48,17.48,0,0,1,.15,2.34v.21q0,.81,0,1.47l0,1.49c0,5-1.16,7.46-3.5,7.3A2.22,2.22,0,0,1,325.32,424.88Zm2-.91a2.25,2.25,0,0,0,.6-1,9.82,9.82,0,0,0,.6-2.84,22.87,22.87,0,0,0,.13-2.29c0-.79-.06-1.82-.18-3.1s-.16-2.36-.16-3v-.47a3,3,0,0,0-.67-1.78,2.06,2.06,0,0,0-1.5-.83,1.09,1.09,0,0,0-1.18.94,6.92,6.92,0,0,0-.26,2.07q0,.51,0,.84v.71l-.05,1.2a10.93,10.93,0,0,0-.06,1.2c0,.94,0,1.88.08,2.8a24.56,24.56,0,0,0,.52,3.86c.28,1.31.69,2,1.23,2A1.13,1.13,0,0,0,327.34,424Z" style="fill:#263238"></path><path d="M332.61,425.34a1.07,1.07,0,0,1-.38-.71l.29-.42a1.91,1.91,0,0,1,.5.13,3.45,3.45,0,0,0,.6.12,1,1,0,0,0,.85-.36A2.38,2.38,0,0,0,335,423a8.28,8.28,0,0,0,.34-2.22,7.81,7.81,0,0,0-1.1-3.72l-.29-.51c-.33-.6-.61-1.13-.83-1.6a9.66,9.66,0,0,1-.58-1.51,7.05,7.05,0,0,1-.31-2.06,5.94,5.94,0,0,1,.52-2.37,2.21,2.21,0,0,1,.74-.93,1.7,1.7,0,0,1,1.09-.31,1.51,1.51,0,0,1,.88.36,1,1,0,0,1,.4.75.4.4,0,0,1-.18.36.79.79,0,0,1-.45.1,1.12,1.12,0,0,1-.54-.2c-.39,0-.69.31-.92,1a5.2,5.2,0,0,0-.29,1.5,5.25,5.25,0,0,0,.24,1.54,6.22,6.22,0,0,0,.6,1.44l.58,1.09.91,1.79a8.65,8.65,0,0,1,.59,1.74,8.9,8.9,0,0,1,.22,2,6.26,6.26,0,0,1-.73,3,2.76,2.76,0,0,1-1,1.11,2.45,2.45,0,0,1-1.48.34v.08A1.77,1.77,0,0,1,332.61,425.34Z" style="fill:#263238"></path></g><g id="freepik--videotape-3--inject-83"><path d="M132.58,344v40.89l292.55,18.6,43-26.41.59-38.47L428.1,359.17a22.66,22.66,0,0,1-5.58,1.12C420.29,360.29,132.58,344,132.58,344Z" style="fill:#545454;stroke:#263238;stroke-linecap:round;stroke-linejoin:round"></path><path d="M174.46,355.29l.27,24.75a4.38,4.38,0,0,0,4.1,4.32l226.43,14.69a4.37,4.37,0,0,0,4.66-4.32l.28-26.91a4.36,4.36,0,0,0-4.13-4.41l-227-12.54A4.37,4.37,0,0,0,174.46,355.29Z" style="fill:#fff;stroke:#263238;stroke-linecap:round;stroke-linejoin:round"></path><path d="M232.23,378.82a2.67,2.67,0,0,1-.1-.84c0-.71,0-1.57.1-2.6s.12-1.86.12-2.63,0-2.17.07-3.9l.05-3.88a4.31,4.31,0,0,0-.07-.67l-.07-.62v-.12a1.49,1.49,0,0,1,.17-.83.64.64,0,0,1,.64-.24,3.41,3.41,0,0,1,1.4.44,2.68,2.68,0,0,1,1.1,1,5.74,5.74,0,0,1,.72,3,9.67,9.67,0,0,1-.22,2.21,4.62,4.62,0,0,1-.77,1.63,3.35,3.35,0,0,1,.9,1.68,11,11,0,0,1,.24,2.5,6,6,0,0,1-.52,2.58,3,3,0,0,1-1.72,1.64,4.1,4.1,0,0,1-1.38.18A.64.64,0,0,1,232.23,378.82Zm2.53-1.6a3.33,3.33,0,0,0,.44-1.72,12.38,12.38,0,0,0-.12-1.83,5.31,5.31,0,0,0-.26-1,3.23,3.23,0,0,0-.43-.77,1.22,1.22,0,0,0-.69-.48c-.06.93-.1,2.17-.1,3.71,0,.1,0,.41,0,.93l0,.84a.08.08,0,0,0,0,.07v1.16A1.74,1.74,0,0,0,234.76,377.22ZM235,367c0-2.11-.34-3.24-1-3.37a7.7,7.7,0,0,0-.27,2.64v3.64C234.53,370,235,369,235,367Z" style="fill:#263238"></path><path d="M238.27,378.58c0-.4.26-.58.77-.56l.27,0,.24,0a.27.27,0,0,0,.27-.11.87.87,0,0,0,.08-.44c0-.27,0-.71-.05-1.3,0-.4-.11-1.11-.17-2.12-.15-2.52-.22-4.42-.22-5.69,0-.46,0-.88,0-1.26l0-1.25a10.46,10.46,0,0,0-.07-1.36,2,2,0,0,1-.57.07.54.54,0,0,1-.59-.61.59.59,0,0,1,.37-.5,2.61,2.61,0,0,1,.94-.28,9.17,9.17,0,0,1,1.74-.11.72.72,0,0,1,.51.24.69.69,0,0,1,0,.94.47.47,0,0,1-.41.18.55.55,0,0,1-.24,0H241a.47.47,0,0,0-.36.09.56.56,0,0,0-.11.4q0,2.38.3,7.19c0,.59.09,1.47.19,2.62a19.68,19.68,0,0,1,.13,2.32V378h.49c.69,0,1,.34,1,.91V379l-.61.39h-1.68C239,379.35,238.27,379.07,238.27,378.58Z" style="fill:#263238"></path><path d="M248.06,379.06a14,14,0,0,1-.76-2.67l-.17-.85c-.48-2.36-.78-3.71-.91-4.05h-.3c0,.47,0,.91,0,1.3v1.35a22.37,22.37,0,0,0,.46,5.16l-.27.65-.69,0-.31-.39,0-1.64q0-2.22-.22-6.73-.19-4.8-.2-6.72,0-1.17.81-1.14a3.53,3.53,0,0,1,2.18.8,2.46,2.46,0,0,1,.85,2v1.72a3.13,3.13,0,0,1-.13.84,3.45,3.45,0,0,1-.27.76l-.46.86-.4.72.13.6.34,1.76c.23,1.27.45,2.31.66,3.11a13.43,13.43,0,0,0,.79,2.17l.15.31a2,2,0,0,1,.24.79.64.64,0,0,1-.14.43.45.45,0,0,1-.4.16C248.68,380.27,248.36,379.86,248.06,379.06Zm-1.12-10.23a7.15,7.15,0,0,0,.38-2.23,5.46,5.46,0,0,0-.19-1.48,1.21,1.21,0,0,0-.41-.62,1.23,1.23,0,0,0-.7-.25l-.05.12-.05.22.05,2.9c0,.86.05,1.79.05,2.79A2.27,2.27,0,0,0,246.94,368.83Z" style="fill:#263238"></path><path d="M253.37,379.68l0-1q0-.42,0-.93l0-.84c0-.18-.18-2-.37-5.4s-.31-5.61-.35-6.58a4.78,4.78,0,0,1-1.82-.38.6.6,0,0,1-.27-.46.41.41,0,0,1,.26-.34.94.94,0,0,1,.53-.14c.46,0,1,.09,1.67.18a14.91,14.91,0,0,0,1.67.21h.4c.51,0,.76.23.76.62a.53.53,0,0,1-.25.47.84.84,0,0,1-.56.16,3.7,3.7,0,0,1-.64-.11l-.49-.12,0,.12,0,.12q0,2.19.42,7,.39,4.51.39,7a.64.64,0,0,1-.26.5.82.82,0,0,1-.58.2Z" style="fill:#263238"></path><path d="M261.78,376.43l0-1.4,0-1.13v-.32c0-.13,0-.28,0-.46a.19.19,0,0,0-.07-.13.19.19,0,0,1-.07-.13v0a1.34,1.34,0,0,1-.45,0,4.05,4.05,0,0,1-.78-.14l-.79-.16v2.83c0,.42,0,1.1.07,2s.08,1.57.08,2a1,1,0,0,1-.2.62.57.57,0,0,1-.52.25c-.31,0-.53-.33-.66-.94a12.49,12.49,0,0,1-.2-2.45l.05-2q0-.84,0-1.77v-.77a2.66,2.66,0,0,0,0-.51v-.13l.08-1.42c0-.62,0-1.55-.08-2.78s-.07-2.16-.07-2.78a.69.69,0,0,1,.2-.51.6.6,0,0,1,.49-.2c.52,0,.78.53.78,1.52l0,3c0,.92,0,1.94,0,3.07a4.5,4.5,0,0,0,1.32.19l.91.05a.79.79,0,0,0,0-.3c0-.78,0-1.95-.15-3.49s-.17-2.63-.17-3.53a.54.54,0,0,1,.21-.44.7.7,0,0,1,.51-.16,1.49,1.49,0,0,1,.49.14l.22.11q0,3.5.24,9.33l.23,6.24a.6.6,0,0,1-.26.52.9.9,0,0,1-.6.17C262.06,380.5,261.78,379.14,261.78,376.43Z" style="fill:#263238"></path><path d="M266.57,377.65l.05-3.88c0-1.15,0-2.43,0-3.86,0-.52,0-1.34-.15-2.44s-.12-1.93-.12-2.2a.71.71,0,0,1,.27-.55.79.79,0,0,1,.59-.21,3.87,3.87,0,0,1,1.66.46,4.79,4.79,0,0,1,1.41,1.14,8.06,8.06,0,0,1,1.72,3.38,7.51,7.51,0,0,1,.22,1.8c0,.21,0,.41,0,.59l0,.66v1.36a22.82,22.82,0,0,1-.1,2.47,7.12,7.12,0,0,1-.56,2.16,5.17,5.17,0,0,1-1.43,1.78A6,6,0,0,1,269,381l-1.77-.09C266.79,380.88,266.57,379.8,266.57,377.65Zm2.63,1.84a2.18,2.18,0,0,0,.72-.67,4.93,4.93,0,0,0,.45-1,7.91,7.91,0,0,0,.31-1.15,13.84,13.84,0,0,0,.27-2.25c0-.2,0-.48,0-.86,0-4.95-1-7.58-2.87-7.89a16.08,16.08,0,0,0-.17,2.55c0,1,.06,2.84.19,5.42.12,2.28.17,4.1.17,5.44v.59A1.59,1.59,0,0,0,269.2,379.49Z" style="fill:#263238"></path><path d="M278.94,381.38a.73.73,0,0,1-.27-.65,20.43,20.43,0,0,0-.25-2.52l-.09-.52-2.44-.49c-.1.37-.24,1.13-.42,2.26A3.36,3.36,0,0,1,275,381a.58.58,0,0,1-.5.2A1,1,0,0,1,274,381a.59.59,0,0,1-.24-.47l0-.12,0-.1A107.27,107.27,0,0,0,276.26,368c0-.07,0-.18,0-.33s0-.38.05-.68c.05-.6.11-1.08.16-1.44a1.77,1.77,0,0,1,.29-.8l.83,0a1.12,1.12,0,0,1,.59.19.54.54,0,0,1,.25.47A45.08,45.08,0,0,0,279,371a49.05,49.05,0,0,1,.5,5.33,5.86,5.86,0,0,0,.12.77,4.72,4.72,0,0,1,.12.75c0,.11.08.61.25,1.48a11,11,0,0,1,.22,1.54v0c0,.36-.13.59-.39.67A1.71,1.71,0,0,1,278.94,381.38Zm-.86-5.5a52.4,52.4,0,0,0-.39-5.67l-.25-2.57c-.7,3.81-1.19,6.7-1.45,8.65a6.14,6.14,0,0,0,2.16.5A4.74,4.74,0,0,1,278.08,375.88Z" style="fill:#263238"></path><path d="M283.61,381.36a15.8,15.8,0,0,0,.27-4.16,16.09,16.09,0,0,0-.12-1.88l-.08-.71c0-.45-.07-.79-.07-1V373l-.9-2.33c-.43-1.13-.78-2.08-1-2.85a6.92,6.92,0,0,1-.47-1.79v-.13l.57-.39c.28.05.57.43.88,1.13a23.17,23.17,0,0,1,.88,2.65c.31,1.14.47,1.75.47,1.82a18.17,18.17,0,0,0,.4-1.83,24.64,24.64,0,0,1,.66-2.74c.28-.79.57-1.18.86-1.17a.72.72,0,0,1,.43.17.47.47,0,0,1,.19.38,13,13,0,0,1-.69,3.51,14.17,14.17,0,0,0-.74,3.55v7.4c0,1.1-.27,1.63-.81,1.61A.87.87,0,0,1,283.61,381.36Z" style="fill:#263238"></path><path d="M294.28,382.25a16.21,16.21,0,0,1-.32-3.63l.05-2.18c0-.65.05-1.38.05-2.19a1.59,1.59,0,0,1-.15-.62v-.07a5.39,5.39,0,0,0,.25-2.11l0-1.12c0-.36,0-.77,0-1.21a10.58,10.58,0,0,0-.2-2.29,1.51,1.51,0,0,1,.25-.59.45.45,0,0,1,.41-.24l1.09.05a2.36,2.36,0,0,1,1.2.37,2.13,2.13,0,0,1,.79.91,5.52,5.52,0,0,1,.49,2.41c0,.65,0,1.17,0,1.55a5.57,5.57,0,0,1-.25,1.29,1.51,1.51,0,0,1-.21.51,5.15,5.15,0,0,1-.38.49,3,3,0,0,1-1.13.73,3.73,3.73,0,0,1-.84.28v2.63l0,1.58.05.76c.07.92.1,1.7.1,2.34a.58.58,0,0,1-.25.49.81.81,0,0,1-.56.19Zm2.61-12.75a6.16,6.16,0,0,0-.08-1.11,1.73,1.73,0,0,0-.19-.49,1.08,1.08,0,0,0-.37-.33,1.34,1.34,0,0,0-.59-.17s-.09,0-.27,0v1.4c0,1,0,1.83,0,2.58s0,1.41,0,1.68v.56C296.4,373.48,296.89,372.12,296.89,369.5Z" style="fill:#263238"></path><path d="M304.66,382.64a.73.73,0,0,1-.27-.65,22.68,22.68,0,0,0-.25-2.52L304,379l-2.43-.49c-.1.37-.24,1.13-.42,2.26a3.33,3.33,0,0,1-.47,1.58.56.56,0,0,1-.49.2.91.91,0,0,1-.54-.21.6.6,0,0,1-.25-.47l.05-.12,0-.1A107.27,107.27,0,0,0,302,369.26a2.33,2.33,0,0,1,0-.33c0-.16,0-.38.05-.68.05-.6.1-1.08.16-1.44a1.9,1.9,0,0,1,.28-.8l.84,0a1.15,1.15,0,0,1,.59.19.55.55,0,0,1,.24.47,45.38,45.38,0,0,0,.52,5.58,48.29,48.29,0,0,1,.49,5.33,5,5,0,0,0,.13.77,4.72,4.72,0,0,1,.12.75c0,.11.08.61.24,1.48a11.61,11.61,0,0,1,.23,1.54v0a.62.62,0,0,1-.4.67A1.67,1.67,0,0,1,304.66,382.64Zm-.86-5.5a52.8,52.8,0,0,0-.4-5.67l-.24-2.57c-.71,3.81-1.19,6.7-1.45,8.65a6.07,6.07,0,0,0,2.16.5A4.74,4.74,0,0,1,303.8,377.14Z" style="fill:#263238"></path><path d="M311.32,382.16a14,14,0,0,1-.76-2.67l-.18-.85q-.7-3.54-.9-4.05h-.3c0,.47,0,.91,0,1.3v1.35a22.37,22.37,0,0,0,.46,5.16l-.27.65-.69,0-.32-.39,0-1.64q0-2.22-.22-6.72-.19-4.81-.2-6.73,0-1.17.81-1.14a3.53,3.53,0,0,1,2.18.8,2.48,2.48,0,0,1,.85,2v1.72a3.13,3.13,0,0,1-.13.84,3.45,3.45,0,0,1-.27.76l-.46.86-.4.72.13.6.34,1.76c.23,1.27.45,2.31.66,3.11a13.43,13.43,0,0,0,.79,2.17l.15.31a2,2,0,0,1,.24.8.68.68,0,0,1-.14.42.45.45,0,0,1-.4.16C311.94,383.37,311.61,383,311.32,382.16Zm-1.12-10.23a7.45,7.45,0,0,0,.38-2.23,5.09,5.09,0,0,0-.2-1.48,1.14,1.14,0,0,0-.4-.62,1.23,1.23,0,0,0-.7-.25l0,.12-.05.22.05,2.91c0,.85,0,1.78,0,2.78A2.27,2.27,0,0,0,310.2,371.93Z" style="fill:#263238"></path><path d="M316.63,382.78l0-1q0-.42,0-.93l0-.84c-.05-.18-.18-2-.37-5.4s-.32-5.61-.35-6.58a4.73,4.73,0,0,1-1.82-.38.6.6,0,0,1-.27-.46.41.41,0,0,1,.26-.34.94.94,0,0,1,.53-.14c.46,0,1,.09,1.67.18a12.89,12.89,0,0,0,1.67.21h.4c.5,0,.76.23.76.62a.53.53,0,0,1-.25.47.84.84,0,0,1-.56.16,3.7,3.7,0,0,1-.64-.11l-.49-.12,0,.12,0,.12q0,2.19.41,7,.4,4.51.4,7a.63.63,0,0,1-.26.5.84.84,0,0,1-.58.2Z" style="fill:#263238"></path><path d="M322.87,383.29a23.53,23.53,0,0,0,.15-6l-.07-.72c-.05-.45-.08-.78-.08-1v-.64l-.89-2.33c-.44-1.14-.79-2.09-1.05-2.86a6.92,6.92,0,0,1-.47-1.79v-.12l.57-.39c.28,0,.57.42.89,1.12a24.2,24.2,0,0,1,.87,2.65c.32,1.15.48,1.76.48,1.82.06-.18.19-.78.39-1.82a27.33,27.33,0,0,1,.66-2.75c.28-.79.57-1.18.86-1.16a.71.71,0,0,1,.44.17.47.47,0,0,1,.18.37,12.91,12.91,0,0,1-.69,3.51,14.26,14.26,0,0,0-.74,3.55v7.4c0,1.1-.27,1.64-.81,1.61Q323.14,383.85,322.87,383.29Z" style="fill:#263238"></path><polygon points="168.45 385.13 168.45 369.22 154.32 368.1 154.32 384.47 168.45 385.13" style="fill:none;stroke:#263238;stroke-linecap:round;stroke-linejoin:round"></polygon><polygon points="155.61 384.34 155.61 370.81 168.35 371.74 168.45 369.22 154.32 368.1 154.32 384.47 155.61 384.34" style="fill:#263238;stroke:#263238;stroke-linecap:round;stroke-linejoin:round"></polygon><path d="M190.4,351.5l-11.33-.63a4.37,4.37,0,0,0-4.61,4.42l.27,24.75a4.38,4.38,0,0,0,4.1,4.32l11.57.75Z" style="fill:#8E8D8D;stroke:#263238;stroke-linecap:round;stroke-linejoin:round"></path><line x1="426.24" y1="362.52" x2="426.24" y2="399.35" style="fill:none;stroke:#263238;stroke-linecap:round;stroke-linejoin:round"></line><line x1="426.99" y1="381.49" x2="460.34" y2="364.01" style="fill:none;stroke:#263238;stroke-linecap:round;stroke-linejoin:round"></line><path d="M460.72,345.79l-2.24,3.72s3.72,16,3.72,17.48-2.23,5.58-2.23,5.58v9.3" style="fill:none;stroke:#263238;stroke-linecap:round;stroke-linejoin:round"></path><line x1="133.49" y1="365.12" x2="171.8" y2="367.36" style="fill:none;stroke:#263238;stroke-linecap:round;stroke-linejoin:round"></line><line x1="411.73" y1="382.24" x2="421.78" y2="382.98" style="fill:none;stroke:#263238;stroke-linecap:round;stroke-linejoin:round"></line><polygon points="468.75 338.56 191.83 328.02 131.62 344.02 425.83 360.83 468.75 338.56" style="fill:#919191;stroke:#263238;stroke-linecap:round;stroke-linejoin:round"></polygon><polygon points="251.56 335.99 227.94 345.48 354.2 349.89 374.32 341.66 251.56 335.99" style="fill:#d1d1d1;stroke:#263238;stroke-linecap:round;stroke-linejoin:round"></polygon><path d="M379.49,342.08l-19.55,8.07,58.26,3s36.51-5.52,19.18-8.91Z" style="fill:#d1d1d1;stroke:#263238;stroke-linecap:round;stroke-linejoin:round"></path><path d="M246.7,335.41l-53.42-2.64s-21.38,2.56-28,5.12S166,343,174.48,343s48.67,2,48.67,2Z" style="fill:#d1d1d1;stroke:#263238;stroke-linecap:round;stroke-linejoin:round"></path></g><g id="freepik--videotape-2--inject-83"><polygon points="141.65 343.38 434.08 357.79 477.18 337.05 477.18 299.86 201.16 290.93 141.27 303.57 141.65 343.38" style="fill:#545454;stroke:#263238;stroke-linecap:round;stroke-linejoin:round"></polygon><polygon points="177.09 343.38 177.09 327.46 162.96 326.35 162.96 342.72 177.09 343.38" style="fill:none;stroke:#263238;stroke-linecap:round;stroke-linejoin:round"></polygon><polygon points="164.25 342.59 164.25 329.06 176.98 329.99 177.09 327.46 162.96 326.35 162.96 342.72 164.25 342.59" style="fill:#263238;stroke:#263238;stroke-linecap:round;stroke-linejoin:round"></polygon><polygon points="477.18 300.28 477.18 299.86 201.16 290.93 141.27 303.57 432.91 315.48 477.18 300.28" style="fill:#919191;stroke:#263238;stroke-linecap:round;stroke-linejoin:round"></polygon><polygon points="262.91 296.13 235.76 303.95 361.12 307.67 383.44 300.6 262.91 296.13" style="fill:#d1d1d1;stroke:#263238;stroke-linecap:round;stroke-linejoin:round"></polygon><path d="M388.65,301,368.93,308l58.77,2.6s36.83-4.83,19.35-7.81Z" style="fill:#d1d1d1;stroke:#263238;stroke-linecap:round;stroke-linejoin:round"></path><path d="M251,296.51l-50.22-1.86s-21.57,1.86-28.27,3.72.74,3.72,9.3,3.72,49.1,1.48,49.1,1.48Z" style="fill:#d1d1d1;stroke:#263238;stroke-linecap:round;stroke-linejoin:round"></path><path d="M183.31,321.46v12.36a6.9,6.9,0,0,0,6.57,6.9l218.69,10.49a6.9,6.9,0,0,0,7.23-6.89V327.4a6.91,6.91,0,0,0-6.71-6.9L190.4,314.56A6.89,6.89,0,0,0,183.31,321.46Z" style="fill:#fff;stroke:#263238;stroke-linecap:round;stroke-linejoin:round"></path><path d="M255.64,340.13a1.36,1.36,0,0,1-.15-.71l0-3.64c0-.31,0-.82,0-1.55,0-1.52-.05-3.24-.05-5.16v-1.25c-.15.78-.4,1.89-.76,3.32s-.62,2.68-.76,3.63v.15l-.08.47a4.61,4.61,0,0,1-.24,1.11.82.82,0,0,1-.76.59c-.59,0-.89-.77-.89-2.32a16.09,16.09,0,0,0-.26-2.74c-.17-1-.44-2.17-.82-3.6l-.74-2.75-.05,2.95c0,.88,0,2.57.12,5.06l0,1.67.05,3.37a1.37,1.37,0,0,1-.37.94.9.9,0,0,1-.84-.38,2.14,2.14,0,0,1-.24-1.12l0-2c.05-.88.08-1.55.08-2l-.05-4.75,0-4.77c0-.7,0-1.76,0-3.17l.66-.39a.64.64,0,0,1,.39.28,4.47,4.47,0,0,1,.45.83,44,44,0,0,1,1.59,6.09,9.36,9.36,0,0,1,.2,1.06q.3,1.43.42,2.16l.37,1.9.17-.81.47-2c.26-1.18.48-2.21.65-3.1s.34-1.84.5-2.87c.18-1.23.3-2.26.35-3.08v-.14a.74.74,0,0,1,.29-.51,1,1,0,0,1,.59-.18.53.53,0,0,1,.4.19.64.64,0,0,1,.17.42q0,3,.22,8.83c.08,1.91.14,3.79.17,5.63,0,.83.05,1.89.05,3.17a1.76,1.76,0,0,1-.3,1,.81.81,0,0,1-.66.44A.44.44,0,0,1,255.64,340.13Z" style="fill:#263238"></path><path d="M260.67,339.84a.77.77,0,0,1-.29-.54v-1.13c0-.15,0-.32,0-.52s0-.87-.08-1.57l0-1.58c0-.8,0-2,.07-3.59.06-1.42.1-2.62.1-3.58,0-.23,0-.58-.08-1s-.07-.82-.07-1c0-1.16.34-1.75,1-1.75a6.78,6.78,0,0,1,1.88.32c.72.22,1.07.47,1.07.77a.63.63,0,0,1-.21.45,1.45,1.45,0,0,1-.5.33,10.21,10.21,0,0,0-1.87-.49c0,.25,0,.6,0,1.06q0,1,0,1.77c-.05.78-.07,1.37-.07,1.77l.07.39.39,0a3.53,3.53,0,0,1,.5,0c.78,0,1.18.23,1.18.69a.59.59,0,0,1-.23.46.84.84,0,0,1-.56.18,3.9,3.9,0,0,1-.69-.05h-.61c0,.43.05,1.05.05,1.87s0,1.56,0,2.21c-.05,1-.07,1.75-.07,2.24a6.54,6.54,0,0,0,.05,1.38l.81,0,1,0c.62,0,.93.19.93.59a.59.59,0,0,1-.31.53,1.44,1.44,0,0,1-.75.18h-2.09A.83.83,0,0,1,260.67,339.84Z" style="fill:#263238"></path><path d="M276.24,339.49v-3.14c0-.82-.06-1.9-.17-3.22-.13-1.49-.2-2.52-.2-3.08l.05-1.52c0-.44.05-.94.05-1.5q-.11.32-.81,3.39c-.48,2-1,3.82-1.48,5.51s-.89,2.43-1.2,2.43a1,1,0,0,1-.75-.28,1,1,0,0,1-.28-.77,24.66,24.66,0,0,0-.88-4.6Q269.7,329.2,269,327l-.15,2.77q-.19,3.52-.27,5.86c0,1.5-.05,2.54-.05,3.09a2.13,2.13,0,0,0,0,.37v.35a.92.92,0,0,1-.18.62.79.79,0,0,1-.64.21.7.7,0,0,1-.46-.18.53.53,0,0,1-.22-.41q0-2.5.36-7.52t.37-7.52a.83.83,0,0,1-.14-.47.5.5,0,0,1,.28-.46,1.41,1.41,0,0,1,.67-.16c.22,0,.61.77,1.18,2.32s1.15,3.28,1.73,5.23.94,3.36,1.1,4.23c.13-.44.24-.85.32-1.23l.15-.59c.52-2.29,1.05-4.37,1.57-6.22a18,18,0,0,1,.91-2.65c.3-.69.57-1,.81-1a1.09,1.09,0,0,1,.63.19.54.54,0,0,1,.28.48q0,1.77.15,5.31c.12,2.19.17,3.9.17,5.11l0,1.3-.05,1.31a7.42,7.42,0,0,0,.07.88l.08.86c0,.15,0,.26,0,.35s0,.13,0,.14a1.58,1.58,0,0,1,.12.47,1.14,1.14,0,0,1-.25.74.73.73,0,0,1-.59.32C276.49,341,276.24,340.51,276.24,339.49Z" style="fill:#263238"></path><path d="M282.58,339.8a3,3,0,0,1-.88-1.09,9.77,9.77,0,0,1-.89-3.27,26,26,0,0,1-.22-3.22,3.28,3.28,0,0,1,0-.49v-.45q0-.12,0-.12v-.44l0-1.72c0-.53.08-1.36.19-2.51a8.64,8.64,0,0,1,.57-2.29,1.8,1.8,0,0,1,.44-.75.89.89,0,0,1,.62-.26,4.24,4.24,0,0,1,1.77.36,3.73,3.73,0,0,1,1.32,1,5.56,5.56,0,0,1,.84,1.51,9,9,0,0,1,.49,1.9,15.27,15.27,0,0,1,.15,2.19v.2c0,.51,0,1,0,1.38l0,1.4q0,7.08-3.3,7.08A1.94,1.94,0,0,1,282.58,339.8Zm1.9-1a2.34,2.34,0,0,0,.56-1,9.82,9.82,0,0,0,.57-2.71q.12-1.25.12-2.16c0-.74-.06-1.71-.17-2.9s-.15-2.21-.15-2.83v-.44a2.61,2.61,0,0,0-.63-1.62,1.76,1.76,0,0,0-1.41-.69,1.11,1.11,0,0,0-1.11,1,6.62,6.62,0,0,0-.24,2c0,.31,0,.58,0,.79v.66L282,330c0,.35-.05.73-.05,1.14,0,.88,0,1.76.08,2.63a21.25,21.25,0,0,0,.49,3.59c.26,1.21.65,1.81,1.16,1.81A1.14,1.14,0,0,0,284.48,338.82Z" style="fill:#263238"></path><path d="M293.06,339a12.76,12.76,0,0,1-.76-2.63l-.18-.84c-.47-2.34-.78-3.68-.91-4h-.29c0,.48,0,.91,0,1.31v1.35a22,22,0,0,0,.47,5.14l-.27.66h-.69l-.32-.37,0-1.64c0-1.48-.08-3.72-.22-6.72-.14-3.19-.2-5.43-.2-6.71,0-.78.27-1.18.81-1.18a3.35,3.35,0,0,1,2.18.69,2.35,2.35,0,0,1,.84,1.92v1.72a3.6,3.6,0,0,1-.12.85,3.76,3.76,0,0,1-.27.77l-.47.89-.39.73.12.59.35,1.75c.23,1.26.45,2.29.66,3.07a11.91,11.91,0,0,0,.79,2.14l.15.3a2,2,0,0,1,.24.78.64.64,0,0,1-.15.43.45.45,0,0,1-.39.19C293.68,340.16,293.35,339.77,293.06,339Zm-1.12-10.17a7.68,7.68,0,0,0,.38-2.25,5.38,5.38,0,0,0-.2-1.47,1.15,1.15,0,0,0-.4-.61,1.2,1.2,0,0,0-.7-.2l0,.12-.05.22.05,2.9c0,.85,0,1.78,0,2.78A2.44,2.44,0,0,0,291.94,328.81Z" style="fill:#263238"></path><path d="M296.08,339c0-.39.26-.59.76-.59h.27l.25,0a.29.29,0,0,0,.27-.12.92.92,0,0,0,.07-.44c0-.28,0-.72-.05-1.31,0-.39-.1-1.09-.17-2.11-.15-2.51-.22-4.4-.22-5.68,0-.46,0-.88,0-1.25l0-1.26a10.19,10.19,0,0,0-.07-1.35,2.49,2.49,0,0,1-.57.1.52.52,0,0,1-.59-.59.62.62,0,0,1,.37-.52,3.07,3.07,0,0,1,.93-.32,9.11,9.11,0,0,1,1.75-.19.67.67,0,0,1,.5.21.64.64,0,0,1,.21.47.69.69,0,0,1-.16.47.49.49,0,0,1-.4.2.9.9,0,0,1-.25,0h-.2a.49.49,0,0,0-.35.11.56.56,0,0,0-.11.41q0,2.39.29,7.18c0,.59.1,1.46.2,2.61a21.77,21.77,0,0,1,.12,2.31v.93a3.05,3.05,0,0,1,.49,0c.69,0,1,.28,1,.86v.14l-.62.42-.16,0h-.5l-1,.05C296.79,339.72,296.08,339.47,296.08,339Z" style="fill:#263238"></path><path d="M303.1,339.84a.76.76,0,0,1-.28-.54v-1.13a3.94,3.94,0,0,1,0-.52c0-.34,0-.87-.07-1.57l-.05-1.58c0-.8,0-2,.07-3.59.07-1.42.1-2.62.1-3.58a10.23,10.23,0,0,0-.07-1c0-.47-.07-.82-.07-1,0-1.16.34-1.75,1-1.75a6.78,6.78,0,0,1,1.88.32c.71.22,1.07.47,1.07.77a.63.63,0,0,1-.21.45,1.5,1.5,0,0,1-.51.33,10.12,10.12,0,0,0-1.86-.49c0,.25,0,.6,0,1.06,0,.65,0,1.24,0,1.77-.05.78-.08,1.37-.08,1.77l.08.39.39,0a3.28,3.28,0,0,1,.49,0c.79,0,1.18.23,1.18.69a.58.58,0,0,1-.22.46.88.88,0,0,1-.57.18,3.86,3.86,0,0,1-.68-.05h-.62c0,.43.05,1.05.05,1.87s0,1.56,0,2.21c-.05,1-.08,1.75-.08,2.24a7.56,7.56,0,0,0,.05,1.38l.81,0,1,0c.62,0,.94.19.94.59a.6.6,0,0,1-.31.53,1.49,1.49,0,0,1-.75.18h-2.09A.86.86,0,0,1,303.1,339.84Z" style="fill:#263238"></path><path d="M309.22,339.77a1,1,0,0,1-.35-.64l.27-.42a1.65,1.65,0,0,1,.46.1,3.06,3.06,0,0,0,.57.07,1.08,1.08,0,0,0,.8-.39,2.56,2.56,0,0,0,.53-1,8.27,8.27,0,0,0,.32-2.11,6.9,6.9,0,0,0-1-3.42l-.27-.46c-.31-.55-.57-1-.78-1.46a7.24,7.24,0,0,1-.54-1.37,6.41,6.41,0,0,1-.3-1.92,5.8,5.8,0,0,1,.49-2.26,2.33,2.33,0,0,1,.7-.92,1.63,1.63,0,0,1,1-.36,1.36,1.36,0,0,1,.83.28.85.85,0,0,1,.38.68.4.4,0,0,1-.17.34.68.68,0,0,1-.42.13,1,1,0,0,1-.52-.15c-.36,0-.65.33-.86,1a5,5,0,0,0-.27,1.42,4.8,4.8,0,0,0,.22,1.44,6.57,6.57,0,0,0,.57,1.32l.54,1,.86,1.62a7.13,7.13,0,0,1,.55,1.6,8.18,8.18,0,0,1,.21,1.84,6.22,6.22,0,0,1-.69,2.86,2.79,2.79,0,0,1-1,1.1A2.45,2.45,0,0,1,310,340v.08A1.7,1.7,0,0,1,309.22,339.77Z" style="fill:#263238"></path><line x1="418.78" y1="336.68" x2="429.94" y2="336.68" style="fill:none;stroke:#263238;stroke-linecap:round;stroke-linejoin:round"></line><line x1="433.28" y1="318.45" x2="433.28" y2="354.54" style="fill:none;stroke:#263238;stroke-linecap:round;stroke-linejoin:round"></line><line x1="436.26" y1="335.57" x2="468.25" y2="323.29" style="fill:none;stroke:#263238;stroke-linecap:round;stroke-linejoin:round"></line><path d="M469,304.69s-.75,4.09.37,5.21,2.6,10.41,1.49,14.51-2.24,8.55-1.86,10a37,37,0,0,1,.37,5.58" style="fill:none;stroke:#263238;stroke-linecap:round;stroke-linejoin:round"></path><path d="M409.09,320.5l-13.75-.37v30.45l13.23.63a6.9,6.9,0,0,0,7.23-6.89V327.4A6.91,6.91,0,0,0,409.09,320.5Z" style="fill:#8E8D8D;stroke:#263238;stroke-linecap:round;stroke-linejoin:round"></path></g><g id="freepik--videotape-1--inject-83"><path d="M434.44,189.13V145.38H166.92V157h-6.76V294.45a9.47,9.47,0,0,0,9.46,9.46H431.74a9.47,9.47,0,0,0,9.46-9.46V189.13Z" style="fill:#545454;stroke:#263238;stroke-linecap:round;stroke-linejoin:round"></path><rect x="175.68" y="142.63" width="275.63" height="38.39" style="fill:#424242;stroke:#263238;stroke-linecap:round;stroke-linejoin:round"></rect><rect x="304.69" y="142.63" width="17.61" height="6.01" style="fill:#fff;stroke:#263238;stroke-linecap:round;stroke-linejoin:round"></rect><polygon points="451.31 181.02 171.85 181.02 175.68 177.22 175.68 147.62 451.31 147.62 451.31 181.02" style="fill:#212121;stroke:#263238;stroke-linecap:round;stroke-linejoin:round"></polygon><path d="M447.26,183V156.15H179.73V183H173V294.45a9.46,9.46,0,0,0,9.45,9.46H444.55a9.46,9.46,0,0,0,9.46-9.46V183Z" style="fill:#424242;stroke:#263238;stroke-linecap:round;stroke-linejoin:round"></path><path d="M435.7,195.76a5.5,5.5,0,0,0-4.62-2.54H196.13a5.51,5.51,0,0,0-4.63,2.54,65.94,65.94,0,0,0,.66,72.22,5.42,5.42,0,0,0,4.51,2.38H430.53a5.44,5.44,0,0,0,4.52-2.38,65.91,65.91,0,0,0,.65-72.22Z" style="fill:#263238;stroke:#263238;stroke-linecap:round;stroke-linejoin:round"></path><path d="M246.25,264.41V199.17a2.68,2.68,0,0,0-2.68-2.68H195.08a60.3,60.3,0,0,0,.55,70.6h47.94A2.68,2.68,0,0,0,246.25,264.41Z" style="fill:#fff;stroke:#263238;stroke-linecap:round;stroke-linejoin:round"></path><polygon points="197.98 228.01 200.79 222.38 198.6 196.49 195.36 196.49 197.98 228.01" style="fill:#263238;stroke:#263238;stroke-linecap:round;stroke-linejoin:round"></polygon><path d="M243.57,196.49H211.88a48.08,48.08,0,0,0,2.65,70.6h29a2.68,2.68,0,0,0,2.68-2.68V199.17A2.68,2.68,0,0,0,243.57,196.49Z" style="fill:#263238;stroke:#263238;stroke-linecap:round;stroke-linejoin:round"></path><path d="M246.32,212.67h-.51a17.91,17.91,0,0,0,0,35.81h.51Z" style="fill:#fff;stroke:#263238;stroke-linecap:round;stroke-linejoin:round"></path><path d="M229.51,227.28a16.89,16.89,0,0,0-.32,3.28,16.54,16.54,0,0,0,1.86,7.65l13.47-6.4Z" style="fill:#fff;stroke:#263238;stroke-linecap:round;stroke-linejoin:round"></path><path d="M229.75,226.28l14.59,4.41-8.8-13.2A16.59,16.59,0,0,0,229.75,226.28Z" style="fill:#fff;stroke:#263238;stroke-linecap:round;stroke-linejoin:round"></path><path d="M246.32,214h-.51a16.56,16.56,0,0,0-9.44,2.94l9.95,14.94Z" style="fill:#fff;stroke:#263238;stroke-linecap:round;stroke-linejoin:round"></path><path d="M246.32,232.35l-1.59-.48-3.66,14.63a16.52,16.52,0,0,0,4.74.69h.51Z" style="fill:#fff;stroke:#263238;stroke-linecap:round;stroke-linejoin:round"></path><path d="M243.26,233.54l-11.71,5.57a16.6,16.6,0,0,0,8.55,7.07Z" style="fill:#fff;stroke:#263238;stroke-linecap:round;stroke-linejoin:round"></path><path d="M246.32,217.53h-.51a13,13,0,0,0,0,26.09h.51Z" style="fill:#fff;stroke:#263238;stroke-linecap:round;stroke-linejoin:round"></path><path d="M228.8,208.07l-1.25,1.15a30.22,30.22,0,0,0-9,15.24h0a2.39,2.39,0,0,0,1.16,2.63l7.38,4.1A2.81,2.81,0,0,0,231,230l1.28-2.56a46.43,46.43,0,0,1,6.92-10.2l.16-.18a2.81,2.81,0,0,0-.48-4.16l-7.11-5A2.39,2.39,0,0,0,228.8,208.07Z" style="fill:none;stroke:#fff;stroke-linecap:round;stroke-linejoin:round"></path><path d="M200.38,214.78l6.94,3.86a2.81,2.81,0,0,0,3.87-1.2l1.28-2.56a46.2,46.2,0,0,1,6.92-10.2l.16-.18a2.8,2.8,0,0,0-.48-4.16l-5.46-3.85h-1.73A48.16,48.16,0,0,0,200.38,214.78Z" style="fill:none;stroke:#fff;stroke-linecap:round;stroke-linejoin:round"></path><path d="M381,264.41V199.17a2.68,2.68,0,0,1,2.68-2.68h48.49a60.3,60.3,0,0,1-.55,70.6H383.63A2.68,2.68,0,0,1,381,264.41Z" style="fill:#fff;stroke:#263238;stroke-linecap:round;stroke-linejoin:round"></path><polygon points="423.99 196.49 406.96 242.07 410.02 240.03 426.35 196.49 423.99 196.49" style="fill:#263238;stroke:#263238;stroke-linecap:round;stroke-linejoin:round"></polygon><path d="M381,203.67h-.12v60.1H381a30.05,30.05,0,1,0,0-60.1Z" style="fill:#263238;stroke:#263238;stroke-linecap:round;stroke-linejoin:round"></path><path d="M380.88,216.25h.51a17.91,17.91,0,1,1,0,35.81h-.51Z" style="fill:#fff;stroke:#263238;stroke-linecap:round;stroke-linejoin:round"></path><path d="M397.69,230.86a16.89,16.89,0,0,1,.33,3.28,16.54,16.54,0,0,1-1.87,7.65l-13.46-6.4Z" style="fill:#fff;stroke:#263238;stroke-linecap:round;stroke-linejoin:round"></path><path d="M397.46,229.86l-14.6,4.41,8.8-13.2A16.66,16.66,0,0,1,397.46,229.86Z" style="fill:#fff;stroke:#263238;stroke-linecap:round;stroke-linejoin:round"></path><path d="M380.88,217.53h.51a16.56,16.56,0,0,1,9.44,2.94l-9.95,14.94Z" style="fill:#fff;stroke:#263238;stroke-linecap:round;stroke-linejoin:round"></path><path d="M380.88,235.93l1.59-.48,3.66,14.63a16.46,16.46,0,0,1-4.74.69h-.51Z" style="fill:#fff;stroke:#263238;stroke-linecap:round;stroke-linejoin:round"></path><path d="M383.94,237.12l11.71,5.57a16.6,16.6,0,0,1-8.55,7.07Z" style="fill:#fff;stroke:#263238;stroke-linecap:round;stroke-linejoin:round"></path><path d="M380.88,221.11h.51a13,13,0,1,1,0,26.09h-.51Z" style="fill:#fff;stroke:#263238;stroke-linecap:round;stroke-linejoin:round"></path><path d="M398.41,208.07l1.24,1.15a30.22,30.22,0,0,1,9,15.24h0a2.38,2.38,0,0,1-1.16,2.63l-7.38,4.1a2.8,2.8,0,0,1-3.86-1.2l-1.28-2.56a46.82,46.82,0,0,0-6.93-10.2l-.16-.18a2.81,2.81,0,0,1,.48-4.16l7.12-5A2.4,2.4,0,0,1,398.41,208.07Z" style="fill:none;stroke:#fff;stroke-linecap:round;stroke-linejoin:round"></path><path d="M426.82,214.78l-6.94,3.86a2.81,2.81,0,0,1-3.87-1.2l-1.28-2.56a46.2,46.2,0,0,0-6.92-10.2l-.16-.18a2.81,2.81,0,0,1,.48-4.16l5.46-3.85h1.73A47.91,47.91,0,0,1,426.82,214.78Z" style="fill:none;stroke:#fff;stroke-linecap:round;stroke-linejoin:round"></path><rect x="254.51" y="196.54" width="117.15" height="71.36" rx="4.35" style="fill:#424242;stroke:#263238;stroke-linecap:round;stroke-linejoin:round"></rect><rect x="257.07" y="199.1" width="112.03" height="66.25" rx="4.35" style="fill:#fff;stroke:#263238;stroke-linecap:round;stroke-linejoin:round"></rect><path d="M257.07,242.26V261a4.34,4.34,0,0,0,4.34,4.35H364.75A4.35,4.35,0,0,0,369.1,261V242.26Z" style="fill:#8E8D8D;stroke:#263238;stroke-linecap:round;stroke-linejoin:round"></path><path d="M297.78,263l-3.33-17.49h3.09l2.07,12.09,1.95-12.09h3.21L301.45,263Z" style="fill:#263238"></path><path d="M306.61,263V245.55h3.56v7.19h3.09v-7.19h3.56V263h-3.56v-7.75h-3.09V263Z" style="fill:#263238"></path><path d="M324.05,263.28a5.5,5.5,0,0,1-2.7-.6,3.75,3.75,0,0,1-1.63-1.79,8.28,8.28,0,0,1-.64-3.05l3.07-.52a8.42,8.42,0,0,0,.23,1.8,2.21,2.21,0,0,0,.56,1.08,1.3,1.3,0,0,0,.94.36,1,1,0,0,0,.93-.44,1.87,1.87,0,0,0,.25-1,3,3,0,0,0-.53-1.84,8.27,8.27,0,0,0-1.39-1.5l-1.81-1.58a7.35,7.35,0,0,1-1.59-1.86,4.9,4.9,0,0,1-.61-2.54,4.28,4.28,0,0,1,1.26-3.32,4.94,4.94,0,0,1,3.46-1.15,4.69,4.69,0,0,1,2.16.43,3.35,3.35,0,0,1,1.31,1.15,5,5,0,0,1,.65,1.58,11,11,0,0,1,.22,1.69l-3,.46c0-.53-.08-1-.14-1.41a2,2,0,0,0-.39-.94,1.08,1.08,0,0,0-.87-.35,1,1,0,0,0-.93.46,1.88,1.88,0,0,0-.3,1,2.55,2.55,0,0,0,.42,1.52,7.12,7.12,0,0,0,1.15,1.24l1.77,1.56a9.8,9.8,0,0,1,1.89,2.17,5.38,5.38,0,0,1,.79,3,4.46,4.46,0,0,1-.56,2.22,4,4,0,0,1-1.57,1.55A4.71,4.71,0,0,1,324.05,263.28Z" style="fill:#263238"></path><line x1="268.51" y1="209.58" x2="359.07" y2="209.58" style="fill:none;stroke:#263238;stroke-linecap:round;stroke-linejoin:round"></line><line x1="268.51" y1="224.91" x2="359.07" y2="224.91" style="fill:none;stroke:#263238;stroke-linecap:round;stroke-linejoin:round"></line><path d="M175.68,142.63H160.25v8.26h-.09l.09,3.37,7.84,25a4.06,4.06,0,0,0,7.59-2Z" style="fill:#545454;stroke:#263238;stroke-linecap:round;stroke-linejoin:round"></path><path d="M165.52,171.59V299.31s1.63,3.24,7.58,4.32" style="fill:none;stroke:#263238;stroke-linecap:round;stroke-linejoin:round"></path></g></svg>