<?xml version="1.0" standalone="no"?>
<svg xmlns:xlink="http://www.w3.org/1999/xlink" id="wave" style="transform:rotate(0deg); transition: 0.3s" viewBox="0 0 1440 490" version="1.1" xmlns="http://www.w3.org/2000/svg"><defs><linearGradient id="sw-gradient-0" x1="0" x2="0" y1="1" y2="0"><stop stop-color="rgba(223.438, 223.115, 80.304, 1)" offset="0%"/><stop stop-color="rgba(225.715, 174.01, 9.75, 1)" offset="100%"/></linearGradient></defs><path style="transform:translate(0, 0px); opacity:1" fill="url(#sw-gradient-0)" d="M0,49L60,49C120,49,240,49,360,73.5C480,98,600,147,720,155.2C840,163,960,131,1080,171.5C1200,212,1320,327,1440,326.7C1560,327,1680,212,1800,147C1920,82,2040,65,2160,65.3C2280,65,2400,82,2520,73.5C2640,65,2760,33,2880,81.7C3000,131,3120,261,3240,310.3C3360,359,3480,327,3600,294C3720,261,3840,229,3960,220.5C4080,212,4200,229,4320,253.2C4440,278,4560,310,4680,277.7C4800,245,4920,147,5040,130.7C5160,114,5280,180,5400,212.3C5520,245,5640,245,5760,212.3C5880,180,6000,114,6120,81.7C6240,49,6360,49,6480,89.8C6600,131,6720,212,6840,236.8C6960,261,7080,229,7200,228.7C7320,229,7440,261,7560,245C7680,229,7800,163,7920,179.7C8040,196,8160,294,8280,277.7C8400,261,8520,131,8580,65.3L8640,0L8640,490L8580,490C8520,490,8400,490,8280,490C8160,490,8040,490,7920,490C7800,490,7680,490,7560,490C7440,490,7320,490,7200,490C7080,490,6960,490,6840,490C6720,490,6600,490,6480,490C6360,490,6240,490,6120,490C6000,490,5880,490,5760,490C5640,490,5520,490,5400,490C5280,490,5160,490,5040,490C4920,490,4800,490,4680,490C4560,490,4440,490,4320,490C4200,490,4080,490,3960,490C3840,490,3720,490,3600,490C3480,490,3360,490,3240,490C3120,490,3000,490,2880,490C2760,490,2640,490,2520,490C2400,490,2280,490,2160,490C2040,490,1920,490,1800,490C1680,490,1560,490,1440,490C1320,490,1200,490,1080,490C960,490,840,490,720,490C600,490,480,490,360,490C240,490,120,490,60,490L0,490Z"/></svg>